<mxfile host="65bd71144e" scale="1" border="60">
    <diagram id="g50RnRPbjQM4jiU2wBGT" name="Page-1">
        <mxGraphModel dx="1887" dy="758" grid="1" gridSize="10" guides="1" tooltips="1" connect="1" arrows="1" fold="1" page="1" pageScale="1" pageWidth="827" pageHeight="1169" background="#FFFFFF" math="0" shadow="0">
            <root>
                <mxCell id="0"/>
                <mxCell id="1" parent="0"/>
                <mxCell id="14" value="" style="rounded=0;whiteSpace=wrap;html=1;fontSize=16;fillColor=#dae8fc;strokeColor=#6c8ebf;" vertex="1" parent="1">
                    <mxGeometry x="1040" y="160" width="180" height="320" as="geometry"/>
                </mxCell>
                <mxCell id="13" value="" style="rounded=0;whiteSpace=wrap;html=1;fontSize=16;fillColor=#dae8fc;strokeColor=#6c8ebf;" vertex="1" parent="1">
                    <mxGeometry x="720" y="160" width="180" height="320" as="geometry"/>
                </mxCell>
                <mxCell id="10" value="" style="rounded=0;whiteSpace=wrap;html=1;fontSize=16;fillColor=#CCE5FF;strokeColor=#6c8ebf;" vertex="1" parent="1">
                    <mxGeometry x="90" y="160" width="490" height="330" as="geometry"/>
                </mxCell>
                <mxCell id="2" value="Private VNet" style="aspect=fixed;html=1;points=[];align=center;image;fontSize=16;image=img/lib/azure2/networking/Virtual_Networks.svg;fontStyle=1;labelBackgroundColor=none;" vertex="1" parent="1">
                    <mxGeometry x="120" y="170" width="50.25" height="30" as="geometry"/>
                </mxCell>
                <mxCell id="3" value="SQL Server2012" style="aspect=fixed;html=1;points=[];align=center;image;fontSize=16;image=img/lib/azure2/compute/Virtual_Machine.svg;fontStyle=1;labelBackgroundColor=none;" vertex="1" parent="1">
                    <mxGeometry x="180.5" y="288" width="69" height="64" as="geometry"/>
                </mxCell>
                <mxCell id="19" style="edgeStyle=none;html=1;fontSize=16;fontColor=#000000;sourcePerimeterSpacing=40;targetPerimeterSpacing=40;strokeColor=#000000;strokeWidth=3;" edge="1" parent="1" source="4" target="3">
                    <mxGeometry relative="1" as="geometry"/>
                </mxCell>
                <mxCell id="4" value="Self Hosted&lt;br&gt;Intergration Runtime" style="aspect=fixed;html=1;points=[];align=center;image;fontSize=16;image=img/lib/azure2/compute/Virtual_Machine.svg;fontStyle=1;imageBackground=none;labelBackgroundColor=none;" vertex="1" parent="1">
                    <mxGeometry x="420.5" y="288" width="69" height="64" as="geometry"/>
                </mxCell>
                <mxCell id="6" value="Data Factory" style="aspect=fixed;html=1;points=[];align=center;image;fontSize=16;image=img/lib/azure2/databases/Data_Factory.svg;labelBackgroundColor=none;fontStyle=1" vertex="1" parent="1">
                    <mxGeometry x="776" y="272" width="68" height="68" as="geometry"/>
                </mxCell>
                <mxCell id="7" value="SQL Database" style="aspect=fixed;html=1;points=[];align=center;image;fontSize=16;image=img/lib/azure2/databases/SQL_Server.svg;labelBackgroundColor=none;fontStyle=1" vertex="1" parent="1">
                    <mxGeometry x="1097.5" y="210" width="68" height="68" as="geometry"/>
                </mxCell>
                <mxCell id="17" value="Storage Account" style="aspect=fixed;html=1;points=[];align=center;image;fontSize=16;image=img/lib/azure2/storage/Storage_Accounts.svg;labelBackgroundColor=none;fontColor=#000000;fillColor=none;fontStyle=1" vertex="1" parent="1">
                    <mxGeometry x="1097.5" y="340" width="65" height="52" as="geometry"/>
                </mxCell>
                <mxCell id="21" style="edgeStyle=none;html=1;fontSize=16;fontColor=#000000;sourcePerimeterSpacing=40;targetPerimeterSpacing=40;strokeColor=#000000;strokeWidth=3;" edge="1" parent="1">
                    <mxGeometry relative="1" as="geometry">
                        <mxPoint x="1010" y="319.17" as="targetPoint"/>
                        <mxPoint x="930" y="319.17" as="sourcePoint"/>
                    </mxGeometry>
                </mxCell>
                <mxCell id="22" style="edgeStyle=none;html=1;fontSize=16;fontColor=#000000;sourcePerimeterSpacing=40;targetPerimeterSpacing=40;strokeColor=#000000;strokeWidth=3;" edge="1" parent="1">
                    <mxGeometry relative="1" as="geometry">
                        <mxPoint x="690" y="319.1700000000001" as="targetPoint"/>
                        <mxPoint x="610" y="319.1700000000001" as="sourcePoint"/>
                    </mxGeometry>
                </mxCell>
            </root>
        </mxGraphModel>
    </diagram>
</mxfile>